<svg
    xmlns="http://www.w3.org/2000/svg"
    width="24"
    height="24"
    viewBox="0 0 24 24"
>
    <path
        d="M22.6,18.1l-2.2-9h-0.1V13c0,0.1-0.1,0.3-0.3,0.3h-2.3c-0.1,0-0.3-0.1-0.3-0.3V9.4c0-0.1-0.1-0.3-0.3-0.3h-3.5V7.7H4.1
	C3.3,7.7,2.7,8.3,2.5,9l-2.2,9.1c-0.1,0.2-0.1,0.5-0.1,0.7c0,1.3,1,2.1,2.2,2.1c0.6,0,1.2-0.2,1.7-0.7l2.1-2.5
	c0.1-0.1,0.3-0.1,0.4,0c0.4,0.5,1.1,0.7,1.8,0.7c1.6,0,2-1.5,3.2-1.5c1,0,1.5,1.5,3.3,1.5c0.7,0,1.3-0.2,1.7-0.7
	c0.1-0.1,0.3-0.1,0.4,0l2.1,2.4c0.5,0.5,1.1,0.7,1.7,0.7c1.1,0,2.2-0.8,2.2-2.1C22.7,18.5,22.7,18.3,22.6,18.1z M15,11.3
	c0.4,0,0.7,0.3,0.7,0.7s-0.3,0.7-0.7,0.7c-0.4,0-0.7-0.3-0.7-0.7S14.6,11.3,15,11.3z M6.8,14.3H5.8v-1.6c0-0.1-0.1-0.3-0.3-0.3H3.9
	v-0.9h1.6c0.1,0,0.3-0.1,0.3-0.3V9.6h0.9v1.6c0,0.1,0.1,0.3,0.3,0.3h1.6v0.9H7c-0.1,0-0.3,0.1-0.3,0.3V14.3z M8.3,17.1
	c-0.7,0-1.2-0.5-1.2-1.2c0-0.7,0.5-1.2,1.2-1.2c0.7,0,1.2,0.5,1.2,1.2C9.5,16.6,9,17.1,8.3,17.1z M12.4,13.4h-1.9v-0.9h1.9V13.4z
	 M14.6,17.1c-0.7,0-1.2-0.5-1.2-1.2c0-0.7,0.6-1.2,1.2-1.2s1.2,0.5,1.2,1.2C15.8,16.6,15.3,17.1,14.6,17.1z M16.6,14.3
	c-0.4,0-0.7-0.3-0.7-0.7c0-0.4,0.3-0.7,0.7-0.7c0.4,0,0.7,0.3,0.7,0.7C17.3,14,17,14.3,16.6,14.3z M16.6,11c-0.4,0-0.7-0.3-0.7-0.7
	c0-0.4,0.3-0.7,0.7-0.7c0.4,0,0.7,0.3,0.7,0.7C17.3,10.7,17,11,16.6,11z"
    />
    <path d="M23.8,7.2h-4.1V3.1h-1.6v4.1h-4.1v1.6h4.1v4.1h1.6V8.8h4.1V7.2z" />
</svg>
